{
	"asset":{
		"generator":"Khronos glTF Blender I/O v4.4.55",
		"version":"2.0"
	},
	"scene":0,
	"scenes":[
		{
			"name":"Scene",
			"nodes":[
				0,
				1,
				2,
				3,
				4
			]
		}
	],
	"nodes":[
		{
			"mesh":0,
			"name":"Cube_Cube.002",
			"rotation":[
				0.7071068286895752,
				0,
				0,
				0.7071068286895752
			]
		},
		{
			"mesh":1,
			"name":"ground_Plane.004",
			"rotation":[
				0.7071068286895752,
				0,
				0,
				0.7071068286895752
			]
		},
		{
			"mesh":2,
			"name":"light_1_Plane.002",
			"rotation":[
				0.7071068286895752,
				0,
				0,
				0.7071068286895752
			]
		},
		{
			"mesh":3,
			"name":"light_2_Plane.001",
			"rotation":[
				0.7071068286895752,
				0,
				0,
				0.7071068286895752
			]
		},
		{
			"mesh":4,
			"name":"light_3_Plane.003",
			"rotation":[
				0.7071068286895752,
				0,
				0,
				0.7071068286895752
			]
		}
	],
	"materials":[
		{
			"doubleSided":true,
			"name":"cottage_texture",
			"normalTexture":{
				"index":0
			},
			"pbrMetallicRoughness":{
				"baseColorTexture":{
					"index":1
				},
				"metallicFactor":0,
				"roughnessFactor":0.6900347471237183
			}
		},
		{
			"doubleSided":true,
			"name":"ground",
			"pbrMetallicRoughness":{
				"baseColorFactor":[
					0.6399999856948853,
					0.6399999856948853,
					0.6399999856948853,
					1
				],
				"metallicFactor":0,
				"roughnessFactor":0.6900347471237183
			}
		},
		{
			"doubleSided":true,
			"name":"light_1",
			"pbrMetallicRoughness":{
				"baseColorFactor":[
					0.6399999856948853,
					0.6399999856948853,
					0.6399999856948853,
					1
				],
				"metallicFactor":0,
				"roughnessFactor":0.6900347471237183
			}
		}
	],
	"meshes":[
		{
			"name":"Cube_Cube.002",
			"primitives":[
				{
					"attributes":{
						"POSITION":0,
						"NORMAL":1,
						"TEXCOORD_0":2
					},
					"indices":3,
					"material":0
				}
			]
		},
		{
			"name":"ground_Plane.004",
			"primitives":[
				{
					"attributes":{
						"POSITION":4,
						"NORMAL":5
					},
					"indices":6,
					"material":1
				}
			]
		},
		{
			"name":"light_1_Plane.002",
			"primitives":[
				{
					"attributes":{
						"POSITION":7,
						"NORMAL":8
					},
					"indices":6,
					"material":2
				}
			]
		},
		{
			"name":"light_2_Plane.001",
			"primitives":[
				{
					"attributes":{
						"POSITION":9,
						"NORMAL":10
					},
					"indices":6,
					"material":2
				}
			]
		},
		{
			"name":"light_3_Plane.003",
			"primitives":[
				{
					"attributes":{
						"POSITION":11,
						"NORMAL":12
					},
					"indices":6,
					"material":2
				}
			]
		}
	],
	"textures":[
		{
			"sampler":0,
			"source":0
		},
		{
			"sampler":0,
			"source":1
		}
	],
	"images":[
		{
			"mimeType":"image/png",
			"name":"cottage_normal.png",
			"uri":"cottage_normal.png"
		},
		{
			"mimeType":"image/png",
			"name":"cottage_diffuse.png",
			"uri":"cottage_diffuse.png"
		}
	],
	"accessors":[
		{
			"bufferView":0,
			"componentType":5126,
			"count":665,
			"max":[
				14.683440208435059,
				10.435125350952148,
				-0.06411600112915039
			],
			"min":[
				-19.24734115600586,
				-10.300347328186035,
				-14.737866401672363
			],
			"type":"VEC3"
		},
		{
			"bufferView":1,
			"componentType":5126,
			"count":665,
			"type":"VEC3"
		},
		{
			"bufferView":2,
			"componentType":5126,
			"count":665,
			"type":"VEC2"
		},
		{
			"bufferView":3,
			"componentType":5123,
			"count":1434,
			"type":"SCALAR"
		},
		{
			"bufferView":4,
			"componentType":5126,
			"count":4,
			"max":[
				63.196327209472656,
				63.196327209472656,
				-0.07764799892902374
			],
			"min":[
				-63.196327209472656,
				-63.196327209472656,
				-0.07764799892902374
			],
			"type":"VEC3"
		},
		{
			"bufferView":5,
			"componentType":5126,
			"count":4,
			"type":"VEC3"
		},
		{
			"bufferView":6,
			"componentType":5123,
			"count":6,
			"type":"SCALAR"
		},
		{
			"bufferView":7,
			"componentType":5126,
			"count":4,
			"max":[
				109.3549575805664,
				46.87582015991211,
				16.900415420532227
			],
			"min":[
				69.64411163330078,
				-13.559398651123047,
				-49.960655212402344
			],
			"type":"VEC3"
		},
		{
			"bufferView":8,
			"componentType":5126,
			"count":4,
			"type":"VEC3"
		},
		{
			"bufferView":9,
			"componentType":5126,
			"count":4,
			"max":[
				39.413719177246094,
				-114.50749969482422,
				4.503808975219727
			],
			"min":[
				-29.146217346191406,
				-167.10147094726562,
				-53.766448974609375
			],
			"type":"VEC3"
		},
		{
			"bufferView":10,
			"componentType":5126,
			"count":4,
			"type":"VEC3"
		},
		{
			"bufferView":11,
			"componentType":5126,
			"count":4,
			"max":[
				41.00947189331055,
				161.18516540527344,
				27.184947967529297
			],
			"min":[
				-59.332096099853516,
				116.98707580566406,
				-76.44758605957031
			],
			"type":"VEC3"
		},
		{
			"bufferView":12,
			"componentType":5126,
			"count":4,
			"type":"VEC3"
		}
	],
	"bufferViews":[
		{
			"buffer":0,
			"byteLength":7980,
			"byteOffset":0,
			"target":34962
		},
		{
			"buffer":0,
			"byteLength":7980,
			"byteOffset":7980,
			"target":34962
		},
		{
			"buffer":0,
			"byteLength":5320,
			"byteOffset":15960,
			"target":34962
		},
		{
			"buffer":0,
			"byteLength":2868,
			"byteOffset":21280,
			"target":34963
		},
		{
			"buffer":0,
			"byteLength":48,
			"byteOffset":24148,
			"target":34962
		},
		{
			"buffer":0,
			"byteLength":48,
			"byteOffset":24196,
			"target":34962
		},
		{
			"buffer":0,
			"byteLength":12,
			"byteOffset":24244,
			"target":34963
		},
		{
			"buffer":0,
			"byteLength":48,
			"byteOffset":24256,
			"target":34962
		},
		{
			"buffer":0,
			"byteLength":48,
			"byteOffset":24304,
			"target":34962
		},
		{
			"buffer":0,
			"byteLength":48,
			"byteOffset":24352,
			"target":34962
		},
		{
			"buffer":0,
			"byteLength":48,
			"byteOffset":24400,
			"target":34962
		},
		{
			"buffer":0,
			"byteLength":48,
			"byteOffset":24448,
			"target":34962
		},
		{
			"buffer":0,
			"byteLength":48,
			"byteOffset":24496,
			"target":34962
		}
	],
	"samplers":[
		{
			"magFilter":9729,
			"minFilter":9987
		}
	],
	"buffers":[
		{
			"byteLength":24544,
			"uri":"prueba2.bin"
		}
	]
}
